<?xml version="1.0" encoding="utf-8"?>
<!-- Generator: Adobe Illustrator 26.5.0, SVG Export Plug-In . SVG Version: 6.00 Build 0)  -->
<svg version="1.1" id="uuid-27b853f5-3a4d-4c3d-9ff5-684c8aceae46"
	 xmlns="http://www.w3.org/2000/svg" xmlns:xlink="http://www.w3.org/1999/xlink" x="0px" y="0px" viewBox="0 0 357.3 60"
	 style="enable-background:new 0 0 357.3 60;" xml:space="preserve">
<style type="text/css">
	.st0{fill:#48A35C;}
	.st1{fill-rule:evenodd;clip-rule:evenodd;fill:#557EBF;}
	.st2{fill-rule:evenodd;clip-rule:evenodd;fill:#EE3627;}
	.st3{fill-rule:evenodd;clip-rule:evenodd;fill:#FBB924;}
</style>
<path class="st0" d="M207.7,60c6.7,0,11.2-2.8,12.9-7.8l0.6,0.1c-0.9,5.3,0.5,7.7,7.5,7.7c1,0,2-0.1,2.9-0.2l1-5.9h-1.3
	c-1.4,0-1.8-0.4-1.8-2.2V39.2c0-6.9-4.7-10.2-14.8-10.2c-10.6,0-16,4.1-15.6,10.9l10.3,0.5c-0.3-3.8,1.5-5.5,5.1-5.5
	c3.2,0,4.7,1.3,4.7,4.1v1.5l-7.6,1.3c-7.6,1.3-13.3,3.7-13.3,10.1V52C198.3,57,201.7,60,207.7,60L207.7,60z M212.1,53.3
	c-2.2,0-3.4-0.9-3.4-2.5v-0.1c0-2.4,2.2-3.5,6.4-4.3l4.1-0.8v1C219.2,50.5,215.9,53.3,212.1,53.3L212.1,53.3z"/>
<path class="st0" d="M233.7,59.2H244V47.8c0-7.5,2.1-9.8,8-10.3l4.2-0.3l-1-8.5c-6,0.6-8.9,2.4-12.3,8.4l-0.6-0.3
	c1.3-3.5,1.6-5.1,1.6-7.1h-10.3L233.7,59.2L233.7,59.2L233.7,59.2z"/>
<path class="st0" d="M267.6,59.7c5.9,0,9.7-2.7,11.7-7.6l0.6,0.2c-1,3-1.5,5.4-1.5,6.9h10.4V19.9h-10.3v7.7c0,3.1,0.4,5.6,1.5,8.9
	l-0.5,0.2c-2.1-4.9-5.9-7.7-11.8-7.7c-8.2,0-12.4,5-12.4,14.9v0.9C255.2,54.7,259.4,59.7,267.6,59.7L267.6,59.7z M271.9,53.5
	c-4.1,0-6.3-2.7-6.3-8.2v-1.8c0-5.5,2.1-8.2,6.3-8.2s6.6,2.9,6.6,8.4v1.4C278.5,50.6,276.2,53.5,271.9,53.5z"/>
<path class="st0" d="M307.2,53.8c-4.1,0-6.5-2.3-6.7-7h23c0.2-1.3,0.2-2.5,0.2-3.7c0-9.1-5.8-14.2-16.5-14.2s-17.2,5.2-17.2,14.8
	v1.3c0,9.7,6,14.8,17,14.8c9.8,0,15.4-3.4,16.6-10.1l-10.2-0.9C312.9,52.4,310.8,53.8,307.2,53.8L307.2,53.8z M307.2,35.1
	c4,0,6.1,2,6.1,5.9v0.3h-12.7C301,37.2,303.3,35.1,307.2,35.1z"/>
<path class="st0" d="M325.1,59.2h10.3V45.6c0-5.9,2.6-9.4,6.8-9.4c3.1,0,4.7,1.7,4.7,5v18.1h10.3V38.5c0-6.1-3.6-9.2-10.2-9.2
	c-6,0-10,2.6-12.7,7.9l-0.5-0.2c1.2-3.2,1.5-5,1.5-7.1h-10.2L325.1,59.2L325.1,59.2L325.1,59.2z"/>
<path class="st1" d="M121,40c11.1,0,17-5.3,17-15.2v-0.5c0-9.9-5.8-15.3-16.9-15.3S104,14.4,104,24.3v0.5C104,34.7,109.9,40,121,40z
	 M114.5,25.5c0,5.4,2.2,8.1,6.4,8.1s6.4-2.7,6.4-8.1v-1.9c0-5.4-2.2-8.1-6.4-8.1s-6.4,2.7-6.4,8.1V25.5z"/>
<path class="st1" d="M90.3,39.8c8.2,0,12.4-5,12.4-14.8V24c0-9.8-4.2-14.9-12.4-14.9c-5.8,0-9.7,2.8-11.8,7.7L78,16.6
	c1-3.4,1.5-5.8,1.5-8.9V0H69.2v39.2h10.4c0-1.5-0.6-3.9-1.5-6.9l0.6-0.2C80.7,37.1,84.4,39.8,90.3,39.8L90.3,39.8z M79.5,25.2
	c0,5.5,2.3,8.4,6.6,8.4s6.3-2.7,6.3-8.2v-1.8c0-5.5-2.1-8.2-6.3-8.2s-6.6,2.9-6.6,8.4C79.5,23.8,79.5,25.2,79.5,25.2z"/>
<path class="st0" d="M163.5,59.8c10.8,0,17.5-5.1,21.3-15.1l1,0.3c-2,6.8-2.6,10.6-2.4,13.9h13.2V25.6h-30v10.1h14.6
	C180,44.5,175.9,49,168.4,49c-8.5,0-8.4-8.4-8.4-20.6l-8.3,2.6c0-12,8.4-20.3,17.3-20.3c7.1,0,10.9,3.4,11.6,10.7l15.3-2.3
	C194.6,6.6,185.8,0,169.1,0c-19.3,0-29,10-29,29.8V30C140.1,49.8,148,59.8,163.5,59.8L163.5,59.8z"/>
<path class="st0" d="M172.2,18.6c0,2.5-2,4.5-4.5,4.5s-4.5-2-4.5-4.5s2-4.5,4.5-4.5S172.2,16.1,172.2,18.6z"/>
<path class="st2" d="M139.2,49.1c-2.7,0.1-5.6,0.2-8.5,0.3c-28.3,0.8-61.9-1.6-77-2.7c-5-0.3-8-0.6-8.1-0.5
	c-0.5,0.4,4.1,1.8,10.1,3.2s16.2,3.6,22.7,4.9c6.5,1.3,22.1,3.2,34.6,4.3c13.9,1.2,27.5,1.4,35.1,0.7c0.6-0.1,1.2-0.1,1.8-0.2
	c-3.3-1.4-6.1-3.5-8.3-6.4C140.7,51.7,139.9,50.4,139.2,49.1z"/>
<path class="st3" d="M51.2,40c11.1,0,17-5.3,17-15.2v-0.5c0-9.9-5.8-15.3-17-15.3s-17,5.3-17,15.3v0.5C34.3,34.7,40.1,40,51.2,40z
	 M44.8,25.5c0,5.4,2.2,8.1,6.4,8.1s6.4-2.7,6.4-8.1v-1.9c0-5.4-2.2-8.1-6.4-8.1s-6.4,2.7-6.4,8.1V25.5z"/>
<path class="st3" d="M0,39.3h10.4V23.5h5.8c3.6,0,4.7,1.6,5.5,5.3l0.9,3.7c0.9,3.7,1.5,5.5,2.4,6.8h11.5l0.1-0.8
	c-1.4-1-2.4-2.6-3.5-6.8l-1.2-4.1c-1.2-4.1-2.5-5.6-6-6.6v-0.5c5.6-0.7,8.5-3.9,8.5-9.3v-0.1C34.5,3.9,29.6,0,20.2,0H0V39.3z
	 M10.4,7v9.9h7.7c3.9,0,5.8-1.4,5.8-4.9v-0.1c0-3.5-1.9-4.9-5.6-4.9L10.4,7C10.4,7,10.4,7,10.4,7z"/>
</svg>
