<?xml version="1.0" encoding="UTF-8"?><svg id="uuid-27b853f5-3a4d-4c3d-9ff5-684c8aceae46" xmlns="http://www.w3.org/2000/svg" viewBox="0 0 357.25 84.86"><defs><style>.uuid-fb87efd5-ab09-405b-bdf3-4b5cabcb85d7{fill:#f9b833;}.uuid-e5af9607-d486-4cb7-8cf7-0d875607589b{fill:#ec3031;}.uuid-397f9fe7-7c62-4017-a9ed-10408dd1c261{fill:#fbb924;}.uuid-397f9fe7-7c62-4017-a9ed-10408dd1c261,.uuid-9975b234-4b9f-4b40-8328-04266888869b,.uuid-bfc1d807-8c2c-4916-bc14-b16029c44ffa{fill-rule:evenodd;}.uuid-9975b234-4b9f-4b40-8328-04266888869b{fill:#ee3627;}.uuid-bfc1d807-8c2c-4916-bc14-b16029c44ffa{fill:#557ebf;}.uuid-38663528-a4a3-4485-b1ca-cc40a3c8cb18{fill:#547ebf;}.uuid-d14bc96a-eb97-49e6-b09b-6fe21129c785{fill:#48a35c;}.uuid-f49d6d52-cb26-4bb7-896c-ff69e59d56d0{fill:#49a45e;}</style></defs><path class="uuid-d14bc96a-eb97-49e6-b09b-6fe21129c785" d="M207.71,59.96c6.71,0,11.16-2.81,12.88-7.81l.55,.14c-.86,5.27,.51,7.67,7.5,7.67,1.03,0,2.02-.07,2.88-.24l.99-5.89h-1.27c-1.37-.03-1.81-.41-1.81-2.19v-12.43c0-6.92-4.73-10.17-14.79-10.17-10.65,0-16.03,4.07-15.55,10.92l10.31,.51c-.27-3.8,1.51-5.51,5.07-5.51,3.18,0,4.73,1.27,4.73,4.07v1.51l-7.64,1.3c-7.64,1.3-13.29,3.7-13.29,10.07v.07c0,5.07,3.42,7.98,9.45,7.98Zm4.35-6.64c-2.23,0-3.39-.86-3.39-2.5v-.07c0-2.43,2.23-3.49,6.37-4.28l4.11-.79v.99c.03,3.8-3.29,6.64-7.09,6.64Z"/><path class="uuid-d14bc96a-eb97-49e6-b09b-6fe21129c785" d="M233.7,59.2h10.31v-11.37c0-7.5,2.09-9.83,7.98-10.31l4.18-.31-.99-8.49c-6.03,.58-8.87,2.43-12.26,8.42l-.55-.27c1.3-3.49,1.64-5.1,1.61-7.12h-10.27v29.45h0Z"/><path class="uuid-d14bc96a-eb97-49e6-b09b-6fe21129c785" d="M267.64,59.68c5.89,0,9.66-2.71,11.71-7.64l.58,.24c-.99,3.01-1.47,5.38-1.51,6.88h10.38V19.93h-10.31v7.74c0,3.12,.41,5.55,1.47,8.9l-.55,.24c-2.09-4.93-5.92-7.7-11.75-7.7-8.22,0-12.43,5.03-12.43,14.86v.92c-.03,9.83,4.18,14.79,12.4,14.79Zm4.21-6.2c-4.14,0-6.27-2.74-6.27-8.18v-1.78c0-5.48,2.12-8.22,6.27-8.22s6.61,2.88,6.61,8.42v1.37c0,5.55-2.29,8.39-6.61,8.39Z"/><path class="uuid-d14bc96a-eb97-49e6-b09b-6fe21129c785" d="M307.22,53.83c-4.11,0-6.54-2.26-6.71-6.99h22.98c.17-1.3,.24-2.47,.24-3.66,0-9.14-5.79-14.18-16.47-14.18s-17.16,5.24-17.16,14.83v1.3c0,9.69,5.96,14.79,17.02,14.79,9.83,0,15.41-3.42,16.61-10.14l-10.24-.86c-.62,3.46-2.74,4.9-6.27,4.9Zm-.03-18.7c3.97,0,6.1,2.05,6.1,5.89v.34h-12.67c.38-4.11,2.67-6.23,6.57-6.23Z"/><path class="uuid-d14bc96a-eb97-49e6-b09b-6fe21129c785" d="M325.1,59.21h10.31v-13.63c0-5.89,2.57-9.42,6.81-9.42,3.15,0,4.73,1.68,4.73,4.97v18.08h10.31v-20.68c0-6.13-3.56-9.25-10.24-9.25-5.96,0-10.03,2.57-12.67,7.88l-.55-.24c1.16-3.18,1.54-4.97,1.51-7.12h-10.24v29.41h.03Z"/><path class="uuid-bfc1d807-8c2c-4916-bc14-b16029c44ffa" d="M120.98,40.03c11.13,0,16.95-5.31,16.95-15.24v-.45c0-9.93-5.82-15.27-16.95-15.27s-16.95,5.34-16.95,15.27v.45c0,9.93,5.82,15.24,16.95,15.24Zm-6.44-14.55c0,5.41,2.16,8.12,6.44,8.12s6.44-2.71,6.44-8.12v-1.88c0-5.44-2.19-8.15-6.44-8.15s-6.44,2.71-6.44,8.15v1.88Z"/><path class="uuid-bfc1d807-8c2c-4916-bc14-b16029c44ffa" d="M90.33,39.76c8.22,0,12.43-5,12.43-14.79v-.92c0-9.83-4.21-14.86-12.43-14.86-5.82,0-9.66,2.77-11.75,7.7l-.55-.24c1.03-3.36,1.47-5.79,1.47-8.9V0h-10.34V39.24h10.38c-.03-1.51-.55-3.87-1.51-6.88l.58-.24c2.05,4.97,5.82,7.64,11.71,7.64Zm-10.85-14.59c0,5.51,2.29,8.39,6.61,8.39s6.27-2.74,6.27-8.18v-1.78c0-5.48-2.12-8.22-6.27-8.22s-6.61,2.88-6.61,8.42v1.37Z"/><path class="uuid-d14bc96a-eb97-49e6-b09b-6fe21129c785" d="M163.51,59.82c10.79,0,17.5-5.1,21.33-15.14l.99,.34c-1.99,6.85-2.6,10.65-2.4,13.87h13.22V25.65h-30.03v10.14h14.55c-1.16,8.66-5.31,13.25-12.74,13.25-8.46,0-8.36-8.36-8.36-20.61l-8.32,2.57c0-12.02,8.42-20.27,17.29-20.27,7.12,0,10.92,3.42,11.64,10.72l15.31-2.29C194.57,6.64,185.8,.03,169.06,.03c-19.28,0-29,10.03-29,29.79v.17c0,19.76,7.94,29.83,23.46,29.83Z"/><path class="uuid-d14bc96a-eb97-49e6-b09b-6fe21129c785" d="M172.17,18.56c0,2.5-2.02,4.52-4.52,4.52s-4.52-2.02-4.52-4.52,2.02-4.52,4.52-4.52,4.52,2.02,4.52,4.52Z"/><path class="uuid-9975b234-4b9f-4b40-8328-04266888869b" d="M139.2,49.14c-2.71,.14-5.55,.24-8.53,.34-28.32,.79-61.91-1.64-77.01-2.74-5-.34-7.98-.58-8.08-.48-.45,.38,4.11,1.81,10.07,3.22s16.23,3.63,22.74,4.93c6.54,1.3,22.12,3.22,34.62,4.28,13.94,1.16,27.53,1.44,35.06,.72,.58-.07,1.16-.1,1.78-.21-3.29-1.4-6.06-3.53-8.32-6.4-.86-1.13-1.64-2.36-2.33-3.66Z"/><path class="uuid-397f9fe7-7c62-4017-a9ed-10408dd1c261" d="M51.23,40.03c11.13,0,16.95-5.31,16.95-15.24v-.45c0-9.93-5.82-15.27-16.95-15.27s-16.95,5.34-16.95,15.27v.45c0,9.93,5.82,15.24,16.95,15.24Zm-6.4-14.55c0,5.41,2.16,8.12,6.44,8.12s6.44-2.71,6.44-8.12v-1.88c0-5.44-2.19-8.15-6.44-8.15s-6.44,2.71-6.44,8.15v1.88Z"/><path class="uuid-397f9fe7-7c62-4017-a9ed-10408dd1c261" d="M0,39.28H10.44v-15.82h5.79c3.63,0,4.69,1.58,5.51,5.27l.86,3.73c.86,3.7,1.47,5.51,2.36,6.81h11.51l.1-.75c-1.37-.99-2.36-2.64-3.49-6.78l-1.16-4.11c-1.16-4.14-2.53-5.65-5.96-6.57v-.55c5.58-.72,8.53-3.87,8.53-9.31v-.1C34.48,3.87,29.62,.03,20.2,.03H0V39.28ZM10.44,6.98v9.93h7.74c3.87,0,5.75-1.4,5.75-4.9v-.07c0-3.49-1.85-4.93-5.65-4.93h-7.84v-.03Z"/><path class="uuid-38663528-a4a3-4485-b1ca-cc40a3c8cb18" d="M5.81,81.64l-5.81-4.89,5.81-4.89,1.34,1.36-4.27,3.51,4.27,3.55-1.34,1.36Z"/><path class="uuid-fb87efd5-ab09-405b-bdf3-4b5cabcb85d7" d="M17.61,78.03c0,.61-.11,1.15-.34,1.6s-.54,.83-.95,1.12-.89,.52-1.46,.66-1.18,.22-1.84,.22c-.59,0-1.16-.03-1.71-.1s-1.1-.18-1.64-.34v-2.09c.26,.09,.54,.18,.83,.26s.58,.15,.87,.21,.58,.11,.87,.14,.57,.05,.84,.05c.4,0,.74-.03,1.03-.1s.51-.16,.69-.28,.31-.26,.39-.43,.12-.35,.12-.55c0-.28-.08-.51-.24-.69s-.37-.35-.62-.5-.55-.27-.88-.39-.67-.24-1.01-.37-.68-.28-1.01-.45-.62-.37-.88-.62-.47-.54-.62-.88-.24-.75-.24-1.24c0-.44,.08-.86,.24-1.26s.41-.74,.76-1.04,.79-.53,1.33-.71,1.19-.26,1.96-.26c.22,0,.46,.01,.7,.03s.49,.05,.72,.08,.47,.07,.69,.11,.42,.09,.61,.13v1.94c-.18-.07-.38-.13-.6-.19s-.44-.11-.68-.15-.47-.08-.7-.1-.46-.03-.67-.03c-.37,0-.69,.03-.95,.09s-.47,.14-.64,.25-.29,.24-.36,.39-.11,.33-.11,.52c0,.24,.08,.44,.24,.61s.37,.32,.63,.46,.56,.26,.89,.38,.67,.24,1.02,.38,.69,.29,1.02,.46,.63,.38,.89,.63,.47,.54,.63,.87,.24,.73,.24,1.19Z"/><path class="uuid-fb87efd5-ab09-405b-bdf3-4b5cabcb85d7" d="M20.11,81.44v-11.26h6.78v1.79h-4.63v2.8h4.41v1.75h-4.41v3.13h4.63v1.79h-6.78Z"/><path class="uuid-fb87efd5-ab09-405b-bdf3-4b5cabcb85d7" d="M37.21,73.76c0,.59-.1,1.13-.29,1.62s-.49,.93-.87,1.29-.86,.64-1.44,.84-1.24,.3-2,.3h-1.08v3.62h-2.14v-11.26h3.3c.73,0,1.37,.08,1.93,.24s1.03,.39,1.41,.69,.67,.68,.87,1.12,.3,.96,.3,1.53Zm-2.22,.15c0-.3-.05-.57-.14-.81s-.24-.45-.43-.62-.44-.3-.73-.4-.64-.14-1.04-.14h-1.11v4.13h1.18c.37,0,.69-.05,.97-.15s.52-.25,.71-.44,.34-.42,.44-.68,.15-.56,.15-.89Z"/><path class="uuid-fb87efd5-ab09-405b-bdf3-4b5cabcb85d7" d="M43.87,71.94v9.5h-2.17v-9.5h-3.08v-1.77h8.34v1.77h-3.08Z"/><path class="uuid-fb87efd5-ab09-405b-bdf3-4b5cabcb85d7" d="M58.45,81.44v-1.55l2.66-2.66c.5-.5,.9-.93,1.2-1.29s.53-.69,.7-.97,.27-.55,.32-.79,.08-.49,.08-.75c0-.21-.03-.42-.1-.61s-.17-.36-.3-.5-.3-.25-.5-.34-.43-.12-.69-.12c-.44,0-.85,.1-1.23,.29s-.74,.45-1.08,.77l-1.11-1.43c.49-.45,1.04-.82,1.65-1.09s1.27-.41,1.99-.41c.55,0,1.05,.07,1.5,.21s.83,.35,1.15,.62,.57,.62,.74,1.03,.26,.89,.26,1.43c0,.45-.06,.87-.18,1.25s-.3,.77-.53,1.13-.51,.74-.85,1.1-.72,.76-1.15,1.16l-1.64,1.56h4.75v1.94h-7.64Z"/><path class="uuid-fb87efd5-ab09-405b-bdf3-4b5cabcb85d7" d="M76.29,75.76c0,.92-.1,1.75-.3,2.48s-.5,1.35-.88,1.85-.86,.89-1.42,1.15-1.19,.4-1.91,.4c-.62,0-1.19-.11-1.71-.33s-.97-.56-1.35-1.03-.68-1.07-.89-1.8-.32-1.6-.32-2.62c0-.92,.1-1.75,.31-2.48s.5-1.35,.88-1.85,.86-.89,1.42-1.15,1.2-.4,1.91-.4c.62,0,1.19,.11,1.71,.33s.97,.56,1.35,1.03,.67,1.06,.88,1.79,.32,1.61,.32,2.63Zm-6.67,.03v.32c0,.1,0,.2,.02,.31l4.22-3.05c-.2-.57-.47-.99-.8-1.26s-.72-.41-1.17-.41c-.32,0-.62,.08-.9,.25s-.52,.42-.72,.75-.36,.76-.48,1.28-.18,1.12-.18,1.82Zm4.55,.03c0-.1,0-.2,0-.3s0-.2,0-.29l-4.2,3.03c.18,.56,.44,.97,.78,1.24s.72,.41,1.16,.41c.32,0,.62-.08,.9-.25s.52-.42,.72-.75,.36-.76,.48-1.28,.17-1.12,.17-1.81Z"/><path class="uuid-fb87efd5-ab09-405b-bdf3-4b5cabcb85d7" d="M77.86,81.44v-1.55l2.66-2.66c.5-.5,.9-.93,1.2-1.29s.53-.69,.7-.97,.27-.55,.32-.79,.08-.49,.08-.75c0-.21-.03-.42-.1-.61s-.17-.36-.3-.5-.3-.25-.5-.34-.43-.12-.69-.12c-.44,0-.85,.1-1.23,.29s-.74,.45-1.08,.77l-1.11-1.43c.49-.45,1.04-.82,1.65-1.09s1.27-.41,1.99-.41c.55,0,1.05,.07,1.5,.21s.83,.35,1.15,.62,.57,.62,.74,1.03,.26,.89,.26,1.43c0,.45-.06,.87-.18,1.25s-.3,.77-.53,1.13-.51,.74-.85,1.1-.72,.76-1.15,1.16l-1.64,1.56h4.75v1.94h-7.64Z"/><path class="uuid-fb87efd5-ab09-405b-bdf3-4b5cabcb85d7" d="M87.56,81.44v-1.55l2.66-2.66c.5-.5,.9-.93,1.2-1.29s.53-.69,.7-.97,.27-.55,.32-.79,.08-.49,.08-.75c0-.21-.03-.42-.1-.61s-.17-.36-.3-.5-.3-.25-.5-.34-.43-.12-.69-.12c-.44,0-.85,.1-1.23,.29s-.74,.45-1.08,.77l-1.11-1.43c.49-.45,1.04-.82,1.65-1.09s1.27-.41,1.99-.41c.55,0,1.05,.07,1.5,.21s.83,.35,1.15,.62,.57,.62,.74,1.03,.26,.89,.26,1.43c0,.45-.06,.87-.18,1.25s-.3,.77-.53,1.13-.51,.74-.85,1.1-.72,.76-1.15,1.16l-1.64,1.56h4.75v1.94h-7.64Z"/><path class="uuid-e5af9607-d486-4cb7-8cf7-0d875607589b" d="M109.59,71.97v3.12h4.26v1.74h-4.26v4.61h-2.15v-11.26h6.65v1.79h-4.5Z"/><path class="uuid-e5af9607-d486-4cb7-8cf7-0d875607589b" d="M118.84,72.68v5.7c0,.48,.09,.84,.27,1.08s.45,.37,.81,.37,.69-.15,1.01-.44,.67-.68,1.03-1.18v-5.54h2.1v8.76h-1.82l-.05-1.29c-.18,.22-.37,.43-.56,.61s-.39,.34-.62,.47-.46,.23-.72,.3-.55,.11-.87,.11c-.45,0-.84-.07-1.18-.22s-.62-.35-.84-.62-.39-.59-.5-.97-.17-.8-.17-1.26v-5.88h2.1Z"/><path class="uuid-e5af9607-d486-4cb7-8cf7-0d875607589b" d="M129.28,70.9h-2.47v-1.64h4.63v10.54h2.52v1.64h-7.45v-1.64h2.77v-8.9Z"/><path class="uuid-e5af9607-d486-4cb7-8cf7-0d875607589b" d="M138.99,70.9h-2.47v-1.64h4.63v10.54h2.52v1.64h-7.45v-1.64h2.77v-8.9Z"/><path class="uuid-e5af9607-d486-4cb7-8cf7-0d875607589b" d="M163.16,78.03c0,.61-.11,1.15-.34,1.6s-.54,.83-.95,1.12-.89,.52-1.46,.66-1.18,.22-1.84,.22c-.59,0-1.16-.03-1.71-.1s-1.1-.18-1.64-.34v-2.09c.26,.09,.54,.18,.83,.26s.58,.15,.87,.21,.58,.11,.87,.14,.57,.05,.84,.05c.4,0,.74-.03,1.03-.1s.51-.16,.69-.28,.31-.26,.39-.43,.12-.35,.12-.55c0-.28-.08-.51-.24-.69s-.37-.35-.62-.5-.55-.27-.88-.39-.67-.24-1.01-.37-.68-.28-1.01-.45-.62-.37-.88-.62-.47-.54-.62-.88-.24-.75-.24-1.24c0-.44,.08-.86,.24-1.26s.41-.74,.76-1.04,.79-.53,1.33-.71,1.19-.26,1.96-.26c.22,0,.46,.01,.7,.03s.49,.05,.72,.08,.47,.07,.69,.11,.42,.09,.61,.13v1.94c-.18-.07-.38-.13-.6-.19s-.44-.11-.68-.15-.47-.08-.7-.1-.46-.03-.67-.03c-.37,0-.69,.03-.95,.09s-.47,.14-.64,.25-.29,.24-.36,.39-.11,.33-.11,.52c0,.24,.08,.44,.24,.61s.37,.32,.63,.46,.56,.26,.89,.38,.67,.24,1.02,.38,.69,.29,1.02,.46,.63,.38,.89,.63,.47,.54,.63,.87,.24,.73,.24,1.19Z"/><path class="uuid-e5af9607-d486-4cb7-8cf7-0d875607589b" d="M172.49,81.35c-.38,.09-.76,.16-1.15,.21s-.75,.08-1.09,.08c-.57,0-1.07-.06-1.49-.18s-.76-.3-1.03-.55-.47-.56-.6-.94-.19-.84-.19-1.37v-4.27h-2.35v-1.64h2.35v-2.24l2.15-.56v2.8h3.4v1.64h-3.4v4.12c0,.5,.11,.88,.34,1.13s.61,.38,1.15,.38c.34,0,.68-.03,1.01-.09s.63-.12,.9-.2v1.68Z"/><path class="uuid-e5af9607-d486-4cb7-8cf7-0d875607589b" d="M180.46,81.44l-.05-1.15c-.18,.2-.38,.37-.58,.54s-.42,.31-.66,.43-.5,.21-.79,.28-.6,.1-.93,.1c-.45,0-.84-.07-1.18-.2s-.62-.32-.85-.55-.4-.52-.52-.85-.18-.7-.18-1.1,.09-.8,.26-1.15,.44-.65,.8-.9,.81-.45,1.34-.59,1.17-.22,1.89-.22h1.15v-.53c0-.22-.03-.43-.09-.61s-.17-.33-.31-.46-.32-.22-.55-.29-.5-.1-.83-.1c-.52,0-1.03,.06-1.53,.18s-.99,.28-1.46,.5v-1.68c.42-.17,.9-.3,1.45-.41s1.12-.16,1.71-.16c.65,0,1.21,.06,1.67,.19s.85,.31,1.15,.56,.52,.56,.67,.93,.22,.8,.22,1.3v5.98h-1.8Zm-.3-3.87h-1.28c-.36,0-.66,.03-.9,.1s-.45,.16-.6,.28-.27,.26-.34,.42-.11,.33-.11,.5c0,.36,.11,.63,.34,.81s.54,.28,.94,.28c.29,0,.6-.11,.91-.32s.66-.52,1.04-.91v-1.17Z"/><path class="uuid-e5af9607-d486-4cb7-8cf7-0d875607589b" d="M191.76,81.1c-.41,.17-.84,.29-1.28,.37s-.9,.12-1.39,.12c-.7,0-1.32-.09-1.87-.28s-1.02-.47-1.4-.84-.68-.84-.88-1.39-.31-1.19-.31-1.91,.11-1.34,.33-1.9,.53-1.05,.93-1.46,.89-.71,1.45-.93,1.2-.33,1.89-.33c.57,0,1.05,.03,1.43,.09s.74,.14,1.05,.23v2.04c-.36-.18-.74-.32-1.16-.41s-.81-.15-1.18-.15-.74,.07-1.05,.2-.57,.32-.78,.55-.37,.52-.49,.86-.17,.71-.17,1.11,.06,.8,.18,1.13,.29,.62,.51,.85,.49,.41,.8,.53,.65,.19,1.03,.19c.18,0,.38-.01,.58-.04s.41-.06,.61-.11,.41-.1,.6-.17,.38-.13,.56-.21v1.87Z"/><path class="uuid-e5af9607-d486-4cb7-8cf7-0d875607589b" d="M199.8,81.44l-3.23-4.38v4.38h-2.1v-12.18h2.1v7.13l3.06-3.71h2.63l-3.55,3.99,3.84,4.77h-2.75Z"/><path class="uuid-e5af9607-d486-4cb7-8cf7-0d875607589b" d="M213.7,81.44v-11.26h3.64c1.28,0,2.24,.22,2.88,.67s.96,1.13,.96,2.03c0,.28-.03,.56-.1,.82s-.17,.51-.31,.74-.31,.42-.52,.59-.45,.31-.73,.41c.28,.05,.55,.14,.81,.27s.48,.31,.67,.53,.34,.47,.46,.76,.17,.62,.17,.98c0,1.15-.38,2.01-1.15,2.59s-1.88,.87-3.33,.87h-3.44Zm5.27-8.19c0-.21-.03-.41-.1-.58s-.18-.32-.33-.44-.35-.21-.59-.28-.53-.1-.87-.1h-1.28v2.98h1.28c.34,0,.64-.04,.87-.12s.43-.2,.59-.34,.26-.31,.33-.5,.1-.39,.1-.61Zm-1.69,6.45c.34,0,.64-.04,.89-.13s.47-.21,.64-.36,.3-.33,.39-.54,.13-.43,.13-.66c0-.49-.18-.87-.55-1.15s-.92-.41-1.68-.41h-1.32v3.25h1.48Z"/><path class="uuid-e5af9607-d486-4cb7-8cf7-0d875607589b" d="M231.37,76.99c0,.69-.1,1.32-.29,1.89s-.48,1.06-.84,1.47-.82,.72-1.35,.95-1.14,.34-1.83,.34-1.23-.09-1.74-.28-.95-.47-1.3-.85-.63-.85-.82-1.41-.28-1.23-.28-1.98c0-.7,.1-1.33,.3-1.9s.48-1.05,.85-1.46,.82-.71,1.36-.93,1.14-.33,1.81-.33,1.24,.1,1.75,.29,.95,.48,1.3,.86,.63,.85,.81,1.41,.28,1.21,.28,1.94Zm-2.19,.05c0-.91-.17-1.59-.51-2.05s-.85-.69-1.51-.69c-.37,0-.68,.07-.94,.22s-.47,.34-.64,.59-.29,.54-.37,.87-.12,.69-.12,1.07c0,.91,.18,1.6,.55,2.06s.87,.69,1.51,.69c.35,0,.65-.07,.91-.21s.47-.34,.63-.59,.28-.54,.36-.88,.12-.7,.12-1.09Z"/><path class="uuid-e5af9607-d486-4cb7-8cf7-0d875607589b" d="M241.07,76.99c0,.69-.1,1.32-.29,1.89s-.48,1.06-.84,1.47-.82,.72-1.35,.95-1.14,.34-1.83,.34-1.23-.09-1.74-.28-.95-.47-1.3-.85-.63-.85-.82-1.41-.28-1.23-.28-1.98c0-.7,.1-1.33,.3-1.9s.48-1.05,.85-1.46,.82-.71,1.36-.93,1.14-.33,1.81-.33,1.24,.1,1.75,.29,.95,.48,1.3,.86,.63,.85,.81,1.41,.28,1.21,.28,1.94Zm-2.19,.05c0-.91-.17-1.59-.51-2.05s-.85-.69-1.51-.69c-.37,0-.68,.07-.94,.22s-.47,.34-.64,.59-.29,.54-.37,.87-.12,.69-.12,1.07c0,.91,.18,1.6,.55,2.06s.87,.69,1.51,.69c.35,0,.65-.07,.91-.21s.47-.34,.63-.59,.28-.54,.36-.88,.12-.7,.12-1.09Z"/><path class="uuid-e5af9607-d486-4cb7-8cf7-0d875607589b" d="M250.11,81.35c-.38,.09-.76,.16-1.15,.21s-.75,.08-1.09,.08c-.57,0-1.07-.06-1.49-.18s-.76-.3-1.03-.55-.47-.56-.6-.94-.19-.84-.19-1.37v-4.27h-2.35v-1.64h2.35v-2.24l2.15-.56v2.8h3.4v1.64h-3.4v4.12c0,.5,.11,.88,.34,1.13s.61,.38,1.15,.38c.34,0,.68-.03,1.01-.09s.63-.12,.9-.2v1.68Z"/><path class="uuid-e5af9607-d486-4cb7-8cf7-0d875607589b" d="M259.68,81.1c-.41,.17-.84,.29-1.28,.37s-.9,.12-1.39,.12c-.7,0-1.32-.09-1.87-.28s-1.02-.47-1.4-.84-.68-.84-.88-1.39-.31-1.19-.31-1.91,.11-1.34,.33-1.9,.53-1.05,.93-1.46,.89-.71,1.45-.93,1.2-.33,1.89-.33c.57,0,1.05,.03,1.43,.09s.74,.14,1.05,.23v2.04c-.36-.18-.74-.32-1.16-.41s-.81-.15-1.18-.15-.74,.07-1.05,.2-.57,.32-.78,.55-.37,.52-.49,.86-.17,.71-.17,1.11,.06,.8,.18,1.13,.29,.62,.51,.85,.49,.41,.8,.53,.65,.19,1.03,.19c.18,0,.38-.01,.58-.04s.41-.06,.61-.11,.41-.1,.6-.17,.38-.13,.56-.21v1.87Z"/><path class="uuid-e5af9607-d486-4cb7-8cf7-0d875607589b" d="M267.79,81.44l-.05-1.15c-.18,.2-.38,.37-.58,.54s-.42,.31-.66,.43-.5,.21-.79,.28-.6,.1-.93,.1c-.45,0-.84-.07-1.18-.2s-.62-.32-.85-.55-.4-.52-.52-.85-.18-.7-.18-1.1,.09-.8,.26-1.15,.44-.65,.8-.9,.81-.45,1.34-.59,1.17-.22,1.89-.22h1.15v-.53c0-.22-.03-.43-.09-.61s-.17-.33-.31-.46-.32-.22-.55-.29-.5-.1-.83-.1c-.52,0-1.03,.06-1.53,.18s-.99,.28-1.46,.5v-1.68c.42-.17,.9-.3,1.45-.41s1.12-.16,1.71-.16c.65,0,1.21,.06,1.67,.19s.85,.31,1.15,.56,.52,.56,.67,.93,.22,.8,.22,1.3v5.98h-1.8Zm-.3-3.87h-1.28c-.36,0-.66,.03-.9,.1s-.45,.16-.6,.28-.27,.26-.34,.42-.11,.33-.11,.5c0,.36,.11,.63,.34,.81s.54,.28,.94,.28c.29,0,.6-.11,.91-.32s.66-.52,1.04-.91v-1.17Z"/><path class="uuid-e5af9607-d486-4cb7-8cf7-0d875607589b" d="M278.18,81.44v-5.96c0-.22,0-.41-.02-.57s-.03-.3-.07-.41-.08-.19-.15-.25-.16-.08-.27-.08c-.18,0-.35,.12-.53,.36s-.37,.65-.59,1.23v5.68h-1.8v-5.96c0-.22,0-.41-.02-.57s-.03-.3-.07-.41-.09-.19-.16-.25-.16-.08-.28-.08c-.15,0-.32,.12-.5,.36s-.39,.65-.61,1.23v5.68h-1.82v-8.76h1.56l.03,1.28c.13-.26,.25-.48,.38-.66s.26-.33,.41-.45,.3-.2,.46-.25,.35-.08,.56-.08c.49,0,.86,.13,1.12,.38s.4,.61,.44,1.06c.14-.26,.27-.48,.41-.66s.28-.33,.42-.45,.3-.2,.47-.25,.36-.08,.56-.08c.64,0,1.11,.22,1.41,.67s.46,1.1,.46,1.98v6.28h-1.82Z"/><path class="uuid-e5af9607-d486-4cb7-8cf7-0d875607589b" d="M289.58,76.9c0,.8-.11,1.5-.34,2.09s-.54,1.07-.95,1.46-.88,.68-1.43,.86-1.15,.28-1.8,.28c-.22,0-.44-.01-.65-.04s-.42-.07-.59-.11v3.42h-2.1v-12.18h1.82l.05,1.29c.18-.22,.36-.43,.56-.61s.4-.34,.62-.47,.47-.23,.72-.3,.55-.1,.87-.1c.52,0,.98,.1,1.38,.31s.74,.5,1.01,.88,.48,.84,.62,1.39,.22,1.15,.22,1.83Zm-2.21,.09c0-.48-.03-.89-.1-1.23s-.17-.62-.3-.84-.29-.38-.47-.48-.4-.15-.64-.15c-.36,0-.7,.14-1.02,.43s-.67,.68-1.03,1.17v3.83c.17,.06,.37,.11,.62,.16s.49,.06,.75,.06c.33,0,.64-.07,.91-.21s.51-.33,.7-.59,.34-.56,.44-.93,.16-.77,.16-1.23Z"/><path class="uuid-f49d6d52-cb26-4bb7-896c-ff69e59d56d0" d="M306.29,81.44l-3.02-6.72-.62-1.45v8.17h-1.93v-11.26h2.6l3.08,6.76,.54,1.32v-8.08h1.93v11.26h-2.59Z"/><path class="uuid-f49d6d52-cb26-4bb7-896c-ff69e59d56d0" d="M318.7,76.99c0,.69-.1,1.32-.29,1.89s-.48,1.06-.84,1.47-.82,.72-1.35,.95-1.14,.34-1.83,.34-1.23-.09-1.74-.28-.95-.47-1.3-.85-.63-.85-.82-1.41-.28-1.23-.28-1.98c0-.7,.1-1.33,.3-1.9s.48-1.05,.85-1.46,.82-.71,1.36-.93,1.14-.33,1.81-.33,1.24,.1,1.75,.29,.95,.48,1.3,.86,.63,.85,.81,1.41,.28,1.21,.28,1.94Zm-2.19,.05c0-.91-.17-1.59-.51-2.05s-.85-.69-1.51-.69c-.37,0-.68,.07-.94,.22s-.47,.34-.64,.59-.29,.54-.37,.87-.12,.69-.12,1.07c0,.91,.18,1.6,.55,2.06s.87,.69,1.51,.69c.35,0,.65-.07,.91-.21s.47-.34,.63-.59,.28-.54,.36-.88,.12-.7,.12-1.09Z"/><path class="uuid-f49d6d52-cb26-4bb7-896c-ff69e59d56d0" d="M327.74,81.35c-.38,.09-.76,.16-1.15,.21s-.75,.08-1.09,.08c-.57,0-1.07-.06-1.49-.18s-.76-.3-1.03-.55-.47-.56-.6-.94-.19-.84-.19-1.37v-4.27h-2.35v-1.64h2.35v-2.24l2.15-.56v2.8h3.4v1.64h-3.4v4.12c0,.5,.11,.88,.34,1.13s.61,.38,1.15,.38c.34,0,.68-.03,1.01-.09s.63-.12,.9-.2v1.68Z"/><path class="uuid-f49d6d52-cb26-4bb7-896c-ff69e59d56d0" d="M337.85,76.39c0,.14,0,.33-.01,.56s-.02,.45-.04,.65h-5.76c0,.38,.06,.72,.18,1.02s.28,.54,.5,.74,.47,.35,.78,.45,.64,.16,1,.16c.43,0,.88-.03,1.37-.1s.99-.17,1.51-.32v1.67c-.22,.06-.47,.12-.73,.17s-.53,.1-.81,.14-.55,.07-.84,.09-.55,.03-.82,.03c-.67,0-1.26-.09-1.79-.28s-.98-.47-1.34-.84-.65-.83-.84-1.37-.29-1.18-.29-1.9,.1-1.36,.29-1.94,.47-1.08,.83-1.5,.79-.74,1.3-.97,1.08-.34,1.7-.34,1.17,.1,1.65,.29,.88,.46,1.2,.81,.57,.76,.73,1.23,.25,1,.25,1.57Zm-2.14-.3c0-.34-.04-.64-.13-.9s-.22-.47-.37-.63-.34-.29-.55-.37-.44-.12-.68-.12c-.53,0-.96,.18-1.3,.53s-.54,.85-.6,1.5h3.64Z"/><path class="uuid-f49d6d52-cb26-4bb7-896c-ff69e59d56d0" d="M347.14,78.86c0,.5-.11,.93-.33,1.28s-.51,.64-.88,.86-.78,.38-1.24,.48-.93,.15-1.42,.15c-.64,0-1.22-.03-1.74-.09s-1.01-.15-1.46-.26v-1.9c.54,.22,1.08,.39,1.62,.49s1.04,.15,1.52,.15c.55,0,.96-.09,1.24-.26s.41-.4,.41-.69c0-.13-.03-.25-.09-.36s-.17-.21-.32-.31-.38-.2-.67-.31-.66-.23-1.13-.36c-.43-.12-.81-.26-1.13-.41s-.59-.33-.81-.54-.37-.45-.48-.72-.16-.59-.16-.96,.08-.69,.24-1.01,.4-.59,.72-.83,.72-.43,1.19-.56,1.03-.21,1.67-.21c.55,0,1.04,.03,1.46,.09s.8,.12,1.13,.19v1.71c-.5-.16-.97-.27-1.41-.34s-.87-.1-1.31-.1-.78,.08-1.04,.23-.39,.37-.39,.65c0,.13,.03,.25,.08,.35s.15,.2,.31,.3,.36,.2,.64,.31,.63,.22,1.08,.35c.51,.14,.93,.3,1.28,.46s.62,.35,.83,.56,.36,.44,.45,.71,.14,.57,.14,.9Z"/><path class="uuid-38663528-a4a3-4485-b1ca-cc40a3c8cb18" d="M351.44,71.86l5.81,4.89-5.81,4.89-1.34-1.36,4.27-3.52-4.27-3.54,1.34-1.36Z"/></svg>